%TF.GenerationSoftware,KiCad,Pcbnew,9.0.2*%
%TF.CreationDate,2025-09-20T13:37:04+02:00*%
%TF.ProjectId,3pdt,33706474-2e6b-4696-9361-645f70636258,rev?*%
%TF.SameCoordinates,Original*%
%TF.FileFunction,Copper,L1,Top*%
%TF.FilePolarity,Positive*%
%FSLAX46Y46*%
G04 Gerber Fmt 4.6, Leading zero omitted, Abs format (unit mm)*
G04 Created by KiCad (PCBNEW 9.0.2) date 2025-09-20 13:37:04*
%MOMM*%
%LPD*%
G01*
G04 APERTURE LIST*
%TA.AperFunction,ComponentPad*%
%ADD10C,3.000000*%
%TD*%
%TA.AperFunction,ComponentPad*%
%ADD11R,1.800000X1.800000*%
%TD*%
%TA.AperFunction,ComponentPad*%
%ADD12C,1.800000*%
%TD*%
%TA.AperFunction,Conductor*%
%ADD13C,0.200000*%
%TD*%
G04 APERTURE END LIST*
D10*
%TO.P,IN1,1,1*%
%TO.N,Net-(IN1-Pad1)*%
X149000000Y-72000000D03*
%TD*%
%TO.P,BIN1,1,1*%
%TO.N,Net-(BIN1-Pad1)*%
X141000000Y-72000000D03*
%TD*%
%TO.P,LED1,1,1*%
%TO.N,Net-(LED1-Pad1)*%
X133000000Y-72000000D03*
%TD*%
%TO.P,OUT1,1,1*%
%TO.N,Net-(OUT1-Pad1)*%
X145000000Y-72000000D03*
%TD*%
%TO.P,BOUD1,1,1*%
%TO.N,Net-(BOUD1-Pad1)*%
X137000000Y-72000000D03*
%TD*%
%TO.P,GND1,1,1*%
%TO.N,Net-(GND1-Pad1)*%
X153000000Y-72000000D03*
%TD*%
D11*
%TO.P,PedalSwitch1,1*%
%TO.N,Net-(LED1-Pad1)*%
X137900000Y-89000000D03*
D12*
%TO.P,PedalSwitch1,2*%
%TO.N,Net-(IN1-Pad1)*%
X137900000Y-84200000D03*
%TO.P,PedalSwitch1,3*%
%TO.N,Net-(BOUD1-Pad1)*%
X137900000Y-79400000D03*
%TO.P,PedalSwitch1,4*%
%TO.N,Net-(GND1-Pad1)*%
X143200000Y-89000000D03*
%TO.P,PedalSwitch1,5*%
%TO.N,Net-(BIN1-Pad1)*%
X143200000Y-84200000D03*
%TO.P,PedalSwitch1,6*%
%TO.N,Net-(OUT1-Pad1)*%
X143200000Y-79400000D03*
%TO.P,PedalSwitch1,7*%
%TO.N,Net-(GND1-Pad1)*%
X148500000Y-89000000D03*
%TO.P,PedalSwitch1,8*%
X148500000Y-84200000D03*
%TO.P,PedalSwitch1,9*%
%TO.N,Net-(IN1-Pad1)*%
X148500000Y-79400000D03*
%TD*%
D13*
%TO.N,Net-(LED1-Pad1)*%
X133000000Y-72000000D02*
X133000000Y-84100000D01*
X133000000Y-84100000D02*
X137900000Y-89000000D01*
%TO.N,Net-(BOUD1-Pad1)*%
X137000000Y-72000000D02*
X137000000Y-78500000D01*
X137000000Y-78500000D02*
X137900000Y-79400000D01*
%TO.N,Net-(BIN1-Pad1)*%
X136000000Y-85000000D02*
X137000000Y-86000000D01*
X141000000Y-81000000D02*
X138000000Y-81000000D01*
X136000000Y-83000000D02*
X136000000Y-85000000D01*
X141000000Y-72000000D02*
X141000000Y-81000000D01*
X138000000Y-81000000D02*
X136000000Y-83000000D01*
X137000000Y-86000000D02*
X141400000Y-86000000D01*
X141400000Y-86000000D02*
X143200000Y-84200000D01*
%TO.N,Net-(OUT1-Pad1)*%
X145000000Y-72000000D02*
X145000000Y-77600000D01*
X145000000Y-77600000D02*
X143200000Y-79400000D01*
%TO.N,Net-(IN1-Pad1)*%
X149000000Y-72000000D02*
X149000000Y-78900000D01*
X149000000Y-78900000D02*
X148500000Y-79400000D01*
%TO.N,Net-(GND1-Pad1)*%
X153000000Y-72000000D02*
X153000000Y-79700000D01*
X153000000Y-79700000D02*
X148500000Y-84200000D01*
%TO.N,Net-(IN1-Pad1)*%
X140100000Y-82000000D02*
X137900000Y-84200000D01*
X145900000Y-82000000D02*
X140100000Y-82000000D01*
X148500000Y-79400000D02*
X145900000Y-82000000D01*
%TO.N,Net-(GND1-Pad1)*%
X143200000Y-89000000D02*
X148500000Y-89000000D01*
X148500000Y-84200000D02*
X148500000Y-89000000D01*
%TD*%
M02*
