%TF.GenerationSoftware,KiCad,Pcbnew,9.0.2*%
%TF.CreationDate,2025-09-20T13:37:04+02:00*%
%TF.ProjectId,3pdt,33706474-2e6b-4696-9361-645f70636258,rev?*%
%TF.SameCoordinates,Original*%
%TF.FileFunction,Legend,Top*%
%TF.FilePolarity,Positive*%
%FSLAX46Y46*%
G04 Gerber Fmt 4.6, Leading zero omitted, Abs format (unit mm)*
G04 Created by KiCad (PCBNEW 9.0.2) date 2025-09-20 13:37:04*
%MOMM*%
%LPD*%
G01*
G04 APERTURE LIST*
%ADD10C,0.100000*%
%ADD11C,0.120000*%
%ADD12C,0.127000*%
%ADD13C,0.200000*%
G04 APERTURE END LIST*
D10*
X132357142Y-69457419D02*
X131880952Y-69457419D01*
X131880952Y-69457419D02*
X131880952Y-68457419D01*
X132690476Y-68933609D02*
X133023809Y-68933609D01*
X133166666Y-69457419D02*
X132690476Y-69457419D01*
X132690476Y-69457419D02*
X132690476Y-68457419D01*
X132690476Y-68457419D02*
X133166666Y-68457419D01*
X133595238Y-69457419D02*
X133595238Y-68457419D01*
X133595238Y-68457419D02*
X133833333Y-68457419D01*
X133833333Y-68457419D02*
X133976190Y-68505038D01*
X133976190Y-68505038D02*
X134071428Y-68600276D01*
X134071428Y-68600276D02*
X134119047Y-68695514D01*
X134119047Y-68695514D02*
X134166666Y-68885990D01*
X134166666Y-68885990D02*
X134166666Y-69028847D01*
X134166666Y-69028847D02*
X134119047Y-69219323D01*
X134119047Y-69219323D02*
X134071428Y-69314561D01*
X134071428Y-69314561D02*
X133976190Y-69409800D01*
X133976190Y-69409800D02*
X133833333Y-69457419D01*
X133833333Y-69457419D02*
X133595238Y-69457419D01*
X135642857Y-68933609D02*
X135785714Y-68981228D01*
X135785714Y-68981228D02*
X135833333Y-69028847D01*
X135833333Y-69028847D02*
X135880952Y-69124085D01*
X135880952Y-69124085D02*
X135880952Y-69266942D01*
X135880952Y-69266942D02*
X135833333Y-69362180D01*
X135833333Y-69362180D02*
X135785714Y-69409800D01*
X135785714Y-69409800D02*
X135690476Y-69457419D01*
X135690476Y-69457419D02*
X135309524Y-69457419D01*
X135309524Y-69457419D02*
X135309524Y-68457419D01*
X135309524Y-68457419D02*
X135642857Y-68457419D01*
X135642857Y-68457419D02*
X135738095Y-68505038D01*
X135738095Y-68505038D02*
X135785714Y-68552657D01*
X135785714Y-68552657D02*
X135833333Y-68647895D01*
X135833333Y-68647895D02*
X135833333Y-68743133D01*
X135833333Y-68743133D02*
X135785714Y-68838371D01*
X135785714Y-68838371D02*
X135738095Y-68885990D01*
X135738095Y-68885990D02*
X135642857Y-68933609D01*
X135642857Y-68933609D02*
X135309524Y-68933609D01*
X136500000Y-68457419D02*
X136690476Y-68457419D01*
X136690476Y-68457419D02*
X136785714Y-68505038D01*
X136785714Y-68505038D02*
X136880952Y-68600276D01*
X136880952Y-68600276D02*
X136928571Y-68790752D01*
X136928571Y-68790752D02*
X136928571Y-69124085D01*
X136928571Y-69124085D02*
X136880952Y-69314561D01*
X136880952Y-69314561D02*
X136785714Y-69409800D01*
X136785714Y-69409800D02*
X136690476Y-69457419D01*
X136690476Y-69457419D02*
X136500000Y-69457419D01*
X136500000Y-69457419D02*
X136404762Y-69409800D01*
X136404762Y-69409800D02*
X136309524Y-69314561D01*
X136309524Y-69314561D02*
X136261905Y-69124085D01*
X136261905Y-69124085D02*
X136261905Y-68790752D01*
X136261905Y-68790752D02*
X136309524Y-68600276D01*
X136309524Y-68600276D02*
X136404762Y-68505038D01*
X136404762Y-68505038D02*
X136500000Y-68457419D01*
X137357143Y-68457419D02*
X137357143Y-69266942D01*
X137357143Y-69266942D02*
X137404762Y-69362180D01*
X137404762Y-69362180D02*
X137452381Y-69409800D01*
X137452381Y-69409800D02*
X137547619Y-69457419D01*
X137547619Y-69457419D02*
X137738095Y-69457419D01*
X137738095Y-69457419D02*
X137833333Y-69409800D01*
X137833333Y-69409800D02*
X137880952Y-69362180D01*
X137880952Y-69362180D02*
X137928571Y-69266942D01*
X137928571Y-69266942D02*
X137928571Y-68457419D01*
X138261905Y-68457419D02*
X138833333Y-68457419D01*
X138547619Y-69457419D02*
X138547619Y-68457419D01*
X140309524Y-68933609D02*
X140452381Y-68981228D01*
X140452381Y-68981228D02*
X140500000Y-69028847D01*
X140500000Y-69028847D02*
X140547619Y-69124085D01*
X140547619Y-69124085D02*
X140547619Y-69266942D01*
X140547619Y-69266942D02*
X140500000Y-69362180D01*
X140500000Y-69362180D02*
X140452381Y-69409800D01*
X140452381Y-69409800D02*
X140357143Y-69457419D01*
X140357143Y-69457419D02*
X139976191Y-69457419D01*
X139976191Y-69457419D02*
X139976191Y-68457419D01*
X139976191Y-68457419D02*
X140309524Y-68457419D01*
X140309524Y-68457419D02*
X140404762Y-68505038D01*
X140404762Y-68505038D02*
X140452381Y-68552657D01*
X140452381Y-68552657D02*
X140500000Y-68647895D01*
X140500000Y-68647895D02*
X140500000Y-68743133D01*
X140500000Y-68743133D02*
X140452381Y-68838371D01*
X140452381Y-68838371D02*
X140404762Y-68885990D01*
X140404762Y-68885990D02*
X140309524Y-68933609D01*
X140309524Y-68933609D02*
X139976191Y-68933609D01*
X140976191Y-69457419D02*
X140976191Y-68457419D01*
X141452381Y-69457419D02*
X141452381Y-68457419D01*
X141452381Y-68457419D02*
X142023809Y-69457419D01*
X142023809Y-69457419D02*
X142023809Y-68457419D01*
X144000000Y-68457419D02*
X144190476Y-68457419D01*
X144190476Y-68457419D02*
X144285714Y-68505038D01*
X144285714Y-68505038D02*
X144380952Y-68600276D01*
X144380952Y-68600276D02*
X144428571Y-68790752D01*
X144428571Y-68790752D02*
X144428571Y-69124085D01*
X144428571Y-69124085D02*
X144380952Y-69314561D01*
X144380952Y-69314561D02*
X144285714Y-69409800D01*
X144285714Y-69409800D02*
X144190476Y-69457419D01*
X144190476Y-69457419D02*
X144000000Y-69457419D01*
X144000000Y-69457419D02*
X143904762Y-69409800D01*
X143904762Y-69409800D02*
X143809524Y-69314561D01*
X143809524Y-69314561D02*
X143761905Y-69124085D01*
X143761905Y-69124085D02*
X143761905Y-68790752D01*
X143761905Y-68790752D02*
X143809524Y-68600276D01*
X143809524Y-68600276D02*
X143904762Y-68505038D01*
X143904762Y-68505038D02*
X144000000Y-68457419D01*
X144857143Y-68457419D02*
X144857143Y-69266942D01*
X144857143Y-69266942D02*
X144904762Y-69362180D01*
X144904762Y-69362180D02*
X144952381Y-69409800D01*
X144952381Y-69409800D02*
X145047619Y-69457419D01*
X145047619Y-69457419D02*
X145238095Y-69457419D01*
X145238095Y-69457419D02*
X145333333Y-69409800D01*
X145333333Y-69409800D02*
X145380952Y-69362180D01*
X145380952Y-69362180D02*
X145428571Y-69266942D01*
X145428571Y-69266942D02*
X145428571Y-68457419D01*
X145761905Y-68457419D02*
X146333333Y-68457419D01*
X146047619Y-69457419D02*
X146047619Y-68457419D01*
X148476191Y-69457419D02*
X148476191Y-68457419D01*
X148952381Y-69457419D02*
X148952381Y-68457419D01*
X148952381Y-68457419D02*
X149523809Y-69457419D01*
X149523809Y-69457419D02*
X149523809Y-68457419D01*
X152238095Y-68505038D02*
X152142857Y-68457419D01*
X152142857Y-68457419D02*
X152000000Y-68457419D01*
X152000000Y-68457419D02*
X151857143Y-68505038D01*
X151857143Y-68505038D02*
X151761905Y-68600276D01*
X151761905Y-68600276D02*
X151714286Y-68695514D01*
X151714286Y-68695514D02*
X151666667Y-68885990D01*
X151666667Y-68885990D02*
X151666667Y-69028847D01*
X151666667Y-69028847D02*
X151714286Y-69219323D01*
X151714286Y-69219323D02*
X151761905Y-69314561D01*
X151761905Y-69314561D02*
X151857143Y-69409800D01*
X151857143Y-69409800D02*
X152000000Y-69457419D01*
X152000000Y-69457419D02*
X152095238Y-69457419D01*
X152095238Y-69457419D02*
X152238095Y-69409800D01*
X152238095Y-69409800D02*
X152285714Y-69362180D01*
X152285714Y-69362180D02*
X152285714Y-69028847D01*
X152285714Y-69028847D02*
X152095238Y-69028847D01*
X152714286Y-69457419D02*
X152714286Y-68457419D01*
X152714286Y-68457419D02*
X153285714Y-69457419D01*
X153285714Y-69457419D02*
X153285714Y-68457419D01*
X153761905Y-69457419D02*
X153761905Y-68457419D01*
X153761905Y-68457419D02*
X154000000Y-68457419D01*
X154000000Y-68457419D02*
X154142857Y-68505038D01*
X154142857Y-68505038D02*
X154238095Y-68600276D01*
X154238095Y-68600276D02*
X154285714Y-68695514D01*
X154285714Y-68695514D02*
X154333333Y-68885990D01*
X154333333Y-68885990D02*
X154333333Y-69028847D01*
X154333333Y-69028847D02*
X154285714Y-69219323D01*
X154285714Y-69219323D02*
X154238095Y-69314561D01*
X154238095Y-69314561D02*
X154142857Y-69409800D01*
X154142857Y-69409800D02*
X154000000Y-69457419D01*
X154000000Y-69457419D02*
X153761905Y-69457419D01*
D11*
%TO.C,IN1*%
X150700000Y-72000000D02*
G75*
G02*
X147300000Y-72000000I-1700000J0D01*
G01*
X147300000Y-72000000D02*
G75*
G02*
X150700000Y-72000000I1700000J0D01*
G01*
%TO.C,BIN1*%
X142700000Y-72000000D02*
G75*
G02*
X139300000Y-72000000I-1700000J0D01*
G01*
X139300000Y-72000000D02*
G75*
G02*
X142700000Y-72000000I1700000J0D01*
G01*
%TO.C,LED1*%
X134700000Y-72000000D02*
G75*
G02*
X131300000Y-72000000I-1700000J0D01*
G01*
X131300000Y-72000000D02*
G75*
G02*
X134700000Y-72000000I1700000J0D01*
G01*
%TO.C,OUT1*%
X146700000Y-72000000D02*
G75*
G02*
X143300000Y-72000000I-1700000J0D01*
G01*
X143300000Y-72000000D02*
G75*
G02*
X146700000Y-72000000I1700000J0D01*
G01*
%TO.C,BOUD1*%
X138700000Y-72000000D02*
G75*
G02*
X135300000Y-72000000I-1700000J0D01*
G01*
X135300000Y-72000000D02*
G75*
G02*
X138700000Y-72000000I1700000J0D01*
G01*
%TO.C,GND1*%
X154700000Y-72000000D02*
G75*
G02*
X151300000Y-72000000I-1700000J0D01*
G01*
X151300000Y-72000000D02*
G75*
G02*
X154700000Y-72000000I1700000J0D01*
G01*
D12*
%TO.C,PedalSwitch1*%
X133400000Y-75700000D02*
X133400000Y-92700000D01*
X133400000Y-92700000D02*
X153000000Y-92700000D01*
X153000000Y-92700000D02*
X153000000Y-75700000D01*
X153000000Y-75700000D02*
X133400000Y-75700000D01*
D13*
X132750000Y-89000000D02*
G75*
G02*
X132550000Y-89000000I-100000J0D01*
G01*
X132550000Y-89000000D02*
G75*
G02*
X132750000Y-89000000I100000J0D01*
G01*
%TD*%
M02*
